<svg xmlns="http://www.w3.org/2000/svg" fill="none" width="1em" height="1em" viewBox="0 0 32 32">
  <defs>
    <clipPath id="ABhome_deliver_svg__a">
      <rect width="32" height="32" rx="0"></rect>
    </clipPath>
  </defs>
  <g clip-path="url(#ABhome_deliver_svg__a)">
    <path
      d="M30.44 16.25 25.905 10a2.825 2.825 0 0 0-2.36-1.245h-4.66v-2.94A2.905 2.905 0 0 0 16 2.9H7.15a1 1 0 0 0-1 .965.895.895 0 0 0 1 .93h8.755a1 1 0 0 1 1 1v19.83H13.67a3.9 3.9 0 0 0-7.7 0H2.68a1 1 0 0 0-1 .97v.025a1 1 0 0 0 1 1h3.5a3.875 3.875 0 0 0 3.655 2.545 3.915 3.915 0 0 0 3.625-2.545h7a3.88 3.88 0 0 0 3.655 2.545 3.92 3.92 0 0 0 3.625-2.545h.35A2.915 2.915 0 0 0 31 24.705v-6.78a2.89 2.89 0 0 0-.56-1.675Zm-20.62 12a1.855 1.855 0 0 1-1.925-1.925A1.925 1.925 0 1 1 9.82 28.25Zm14.285 0a1.855 1.855 0 0 1-1.925-1.925 1.925 1.925 0 1 1 1.925 1.925Zm4.97-3.6a1 1 0 0 1-.97 1h-.15a3.895 3.895 0 0 0-7.71.06H18.89V10.66h4.655c.322.015.62.175.81.435l4.53 6.275c.12.161.185.355.19.555v6.725Z"
      fill="#000000" fill-opacity="0.8"></path>
    <path
      d="M5.225 15.07h5.9a1 1 0 0 0 1-.97v-.025a1 1 0 0 0-.97-1h-5.93a1 1 0 0 0-1 .97 1 1 0 0 0 1 1.025ZM6.53 9.915h7.7a1 1 0 1 0 0-2h-7.7a1 1 0 0 0 0 2Zm1.365 10.39a1 1 0 0 0 .025-2H2a1 1 0 0 0-1 .97 1 1 0 0 0 1 1l5.895.03Z"
      fill="#FF5773"></path>
  </g>
</svg>