<svg xmlns="http://www.w3.org/2000/svg" fill="none" width="1em" height="1em" viewBox="0 0 32 32">
  <defs>
    <clipPath id="ABhome_pay_svg__a">
      <rect width="32" height="32" rx="0"></rect>
    </clipPath>
  </defs>
  <g clip-path="url(#ABhome_pay_svg__a)">
    <path
      d="M27.767 6.96v-.988l-2.053-.031h-.006c-.235-.01-2.357-.107-4.51-.978-2.406-.976-3.947-2.088-3.96-2.097l-1.243-.897-1.225.89c-.062.047-1.56 1.125-3.966 2.104-2.303.937-4.493.978-4.515.978l-2.06.03V17.81c0 2.722 1.56 5.772 4.282 8.372 1.172 1.119 2.478 2.072 3.778 2.757 1.35.709 2.631 1.08 3.712 1.08 1.075 0 2.37-.38 3.738-1.1 1.29-.68 2.587-1.627 3.75-2.737 1.237-1.178 2.275-2.506 3.006-3.84.847-1.55 1.275-3.072 1.275-4.532l-.003-10.85ZM15.942 4.48l.053-.04.056.04c.182.131 1.86 1.31 4.385 2.338 2.475 1.003 4.8 1.112 5.24 1.125l.082.003.006 9.866c.003 2.171-1.331 4.693-3.66 6.921-2.053 1.963-4.506 3.282-6.103 3.282-.74 0-1.737-.31-2.803-.87-1.119-.587-2.26-1.421-3.3-2.415-2.328-2.225-3.662-4.747-3.662-6.922V7.944l.084-.003c.103 0 2.581-.047 5.24-1.125 2.5-1.016 4.198-2.2 4.382-2.332v-.003Z"
      fill="#000000" fill-opacity="0.8"></path>
    <path
      d="M22.289 11.52a1.007 1.007 0 0 0-1.416 0l-6.837 6.84-2.913-2.913a1.007 1.007 0 0 0-1.415 0 1.007 1.007 0 0 0 0 1.416l3.618 3.619a1.008 1.008 0 0 0 1.416 0l7.547-7.547a1.007 1.007 0 0 0 0-1.416Z"
      fill="#FF5773"></path>
  </g>
</svg>