<svg xmlns="http://www.w3.org/2000/svg" fill="none" width="1em" height="1em" viewBox="0 0 40 40">
  <defs>
    <clipPath id="bulk_svg__a">
      <rect width="40" height="40" rx="0"></rect>
    </clipPath>
  </defs>
  <g clip-path="url(#bulk_svg__a)">
    <path
      d="M36.722 19.176c.19-.516.448-1.24.767-2.155.321-.921.64-1.843.957-2.766.294-.857.593-1.712.897-2.566a100 100 0 0 0 .537-1.529c.067-.2.107-.453.119-.748.01-.246-.048-.47-.177-.688-.125-.213-.358-.402-.69-.563-.356-.172-.887-.26-1.58-.26H8.629l-.067-.45a99.047 99.047 0 0 0-.248-1.573l-.003-.017c-.054-.408-.11-.817-.166-1.225a9.07 9.07 0 0 0-.154-.872A26.205 26.205 0 0 0 7.79 3.1a1.95 1.95 0 0 0-.33-.605 1.748 1.748 0 0 0-.61-.476c-.257-.129-.625-.194-1.094-.194H1.529c-.488-.022-.86.093-1.13.352C.132 2.436 0 2.76 0 3.169c0 .24.031.512.093.808.056.271.16.53.306.766.147.237.328.435.555.604.185.14.422.207.723.207h3.557l.083.428a1821.013 1821.013 0 0 1 2.456 12.925l.604 3.205c.15.797.302 1.593.457 2.39.122.623.2 1.03.23 1.211.079.392.192.818.337 1.266.138.429.323.83.55 1.195.207.335.47.61.78.817.284.19.655.285 1.1.285h21.827l.124.003c.502 0 .829-.114.971-.34.211-.333.314-.717.314-1.173 0-.612-.178-1.178-1.47-1.178H12.129l-.747-4.803h22.467c.688 0 1.24-.173 1.69-.53.455-.363.852-1.055 1.178-2.06l.006-.02Zm-3.175-.078-22.568-.044-1.661-8.591 27.458.087-3.23 8.548Z"
      fill="currentColor"></path>
    <circle cx="13.5" cy="34.5" stroke="currentColor" stroke-width="2" r="2.5"></circle>
    <circle cx="31.5" cy="34.5" stroke="currentColor" stroke-width="2" r="2.5"></circle>
  </g>
</svg>